<?xml version="1.0" standalone="no"?>
<!DOCTYPE svg PUBLIC "-//W3C//DTD SVG 20010904//EN"
 "http://www.w3.org/TR/2001/REC-SVG-20010904/DTD/svg10.dtd">
<svg version="1.0" xmlns="http://www.w3.org/2000/svg"
 width="512.000000pt" height="512.000000pt" viewBox="0 0 512.000000 512.000000"
 preserveAspectRatio="xMidYMid meet">

<g transform="translate(0.000000,512.000000) scale(0.100000,-0.100000)"
fill="#000000" stroke="none">
<path d="M1042 4627 c-44 -14 -115 -78 -138 -124 -18 -35 -19 -74 -24 -501
l-5 -463 -304 -158 c-202 -104 -317 -170 -342 -194 -73 -73 -69 5 -68 -1316 0
-1181 2 -1252 33 -1253 4 -1 424 302 931 673 693 506 921 677 912 685 -11 11
-948 658 -1429 987 -114 78 -207 144 -207 147 -1 3 9 10 22 15 12 6 120 61
240 123 l217 113 0 -204 0 -203 74 -52 c41 -29 77 -52 80 -52 3 0 6 356 6 790
l0 791 25 24 24 25 1471 0 1471 0 24 -25 25 -24 0 -791 c0 -434 2 -790 5 -790
3 0 39 23 80 50 l75 51 0 205 0 205 238 -122 c130 -67 243 -127 250 -134 10
-9 -164 -130 -805 -564 -450 -305 -824 -559 -830 -565 -10 -9 195 -162 915
-683 l927 -671 13 29 c10 24 12 281 10 1238 l-3 1208 -30 49 c-37 59 -79 85
-435 267 l-250 128 0 446 c0 321 -3 457 -12 487 -16 55 -99 138 -154 154 -55
16 -2981 16 -3032 -1z"/>
<path d="M2043 4145 c-100 -31 -207 -124 -258 -224 -36 -71 -65 -191 -65 -265
0 -222 177 -508 550 -890 175 -179 212 -205 289 -206 75 0 119 30 283 198 375
384 558 677 558 892 0 80 -25 186 -62 260 -45 92 -144 190 -223 220 -172 65
-351 16 -522 -143 l-31 -29 -64 54 c-78 66 -136 100 -216 127 -71 24 -174 27
-239 6z"/>
<path d="M2483 2040 c-24 -5 -62 -18 -85 -28 -42 -19 -2070 -1495 -2076 -1511
-2 -5 7 -11 20 -15 13 -3 1013 -6 2223 -5 1734 0 2206 3 2229 12 29 13 24 17
-999 757 -708 512 -1046 751 -1087 767 -65 27 -162 36 -225 23z"/>
</g>
</svg>
