<svg width="1920" height="1080" viewBox="0 0 1920 1080" fill="none" xmlns="http://www.w3.org/2000/svg">
<g clip-path="url(#clip0_29_4)">
<rect width="1920" height="1080" fill="#1D1D1D"/>
<path d="M568 1764.94L-323.5 1307.88L-1215 1764.94L-323.5 2222L568 1764.94Z" fill="#433131"/>
<path d="M568 1764.94L-323.5 1307.88V927L568 1384.06V1764.94Z" fill="#765555"/>
<path d="M-323.5 1307.88L-1215 1764.94L-1215 1384.06L-323.5 927V1307.88Z" fill="#654949"/>
<path d="M-323.5 2222L-1215 1764.94L-1215 1384.06L-323.5 1841.12V2222Z" fill="#A87A7A"/>
<path d="M-323.5 2222L568 1764.94V1384.06L-323.5 1841.12V2222Z" fill="#866262"/>
<path d="M568 1384.06L-323.5 927L-1215 1384.06L-323.5 1841.12L568 1384.06Z" fill="#976E6E"/>
<path d="M-323.5 1307.88L568 1764.94M-323.5 1307.88L-1215 1764.94M-323.5 1307.88V927M568 1764.94L-323.5 2222M568 1764.94V1384.06M-323.5 2222L-1215 1764.94M-323.5 2222V1841.12M-1215 1764.94L-1215 1384.06M568 1384.06L-323.5 927M568 1384.06L-323.5 1841.12M-323.5 927L-1215 1384.06M-1215 1384.06L-323.5 1841.12" stroke="#322525" stroke-miterlimit="1"/>
<path d="M4 771.5L110.5 903L248 771.5L370 885.5L492 753L698 903L909 1080H0L4 771.5Z" fill="#B0D0FF"/>
<path d="M1576 977.5V877.5L1705 840.5L1700 794L1800 729.5V679.5L1920 635V1080H1405V1021L1576 977.5Z" fill="#C0EB9E"/>
<path d="M1644 993.5V893.5L1753.5 861.5V810L1839 753.5V703.5L1920 679.5V1080H1457V1038.5L1644 993.5Z" fill="#A3CB85"/>
<path d="M-119.293 306.306C-145.203 235.118 -147.316 157.443 -125.315 84.9513C-103.314 12.46 -58.3834 -50.9382 2.72239 -95.716C63.8282 -140.494 137.817 -164.238 213.569 -163.378C289.32 -162.519 362.751 -137.104 422.826 -90.9515C482.901 -44.7989 526.381 19.6015 546.733 92.5733C567.085 165.545 563.21 243.153 535.692 313.735C508.175 384.317 458.495 444.067 394.123 484.006C329.751 523.946 254.153 541.922 178.693 535.232L193.158 372.058C233.3 375.617 273.515 366.054 307.759 344.808C342.002 323.562 368.43 291.777 383.068 254.23C397.706 216.683 399.768 175.399 388.941 136.581C378.115 97.763 354.985 63.5045 323.028 38.9532C291.07 14.4018 252.007 0.882186 211.711 0.425C171.414 -0.0321965 132.055 12.5986 99.549 36.4187C67.0431 60.2386 43.1417 93.964 31.4381 132.527C19.7344 171.089 20.8583 212.409 34.6416 250.279L-119.293 306.306Z" fill="#D9D9D9"/>
<line x1="1576.01" y1="877.952" x2="1643.01" y2="894.952" stroke="black" stroke-width="0.1"/>
<line x1="1405.02" y1="1020.95" x2="1457.02" y2="1038.95" stroke="black" stroke-width="0.1"/>
<line x1="1799.03" y1="679.957" x2="1839.03" y2="703.957" stroke="black" stroke-width="0.1"/>
<path d="M1793.5 681.5L1860.75 657.5L1920 635V680L1841 703L1793.5 681.5Z" fill="#E9FFD9"/>
<path d="M1698.5 794.5L1753 756.5L1801.5 730L1841 749L1753 811L1698.5 794.5Z" fill="#E9FFD9"/>
<path d="M1577.5 877.5L1702 841.5L1753 860.5L1641.5 894.5L1577.5 877.5Z" fill="#E9FFD9"/>
<path d="M1405 1021.5L1577.5 979.5L1641.5 993.5L1456.5 1038L1405 1021.5Z" fill="#E9FFD9"/>
<path d="M1577.5 979.5V877.5L1641.5 894.5V993.5L1577.5 979.5Z" fill="#E9FFD9"/>
<path d="M1702 841.5L1698.5 794.5L1753 811V860.5L1702 841.5Z" fill="#E9FFD9"/>
<path d="M1801.5 730L1793.5 681.5L1841 703V749L1801.5 730Z" fill="#E9FFD9"/>
</g>
<defs>
<clipPath id="clip0_29_4">
<rect width="1920" height="1080" fill="white"/>
</clipPath>
</defs>
</svg>
