<svg width="560" height="537" viewBox="0 0 560 537" fill="none" xmlns="http://www.w3.org/2000/svg">
<path d="M-119.293 306.306C-145.203 235.119 -147.316 157.443 -125.315 84.9516C-103.314 12.4602 -58.3834 -50.938 2.72235 -95.7158C63.8281 -140.494 137.817 -164.237 213.568 -163.378C289.32 -162.519 362.751 -137.104 422.826 -90.9512C482.901 -44.7987 526.381 19.6018 546.733 92.5735C567.085 165.545 563.21 243.153 535.692 313.735C508.174 384.317 458.495 444.067 394.123 484.007C329.751 523.946 254.153 541.922 178.693 535.232L193.158 372.058C233.3 375.617 273.515 366.055 307.759 344.808C342.002 323.562 368.43 291.777 383.068 254.231C397.706 216.684 399.767 175.399 388.941 136.581C378.115 97.7632 354.985 63.5048 323.027 38.9534C291.07 14.4021 252.007 0.882386 211.711 0.425194C171.414 -0.0319988 132.055 12.5988 99.5489 36.4188C67.0431 60.2389 43.1417 93.9642 31.4381 132.527C19.7344 171.089 20.8583 212.41 34.6416 250.279L-119.293 306.306Z" fill="#D9D9D9"/>
</svg>
